<svg width="2169" height="597" viewBox="0 0 2169 597" fill="none" xmlns="http://www.w3.org/2000/svg">
<path d="M972.241 388.784V120.523H1010.59V333.224L1202.15 120.523H1240.5V388.784H1202.15V172.342L1010.59 388.784H972.241ZM1285.18 388.784V120.523H1323.53V350.435H1515.09V120.523H1553.44V350.435H1591.79V427.134H1553.44V388.784H1285.18ZM1602.23 158.873V120.523H1870.49V158.873H1755.44V388.784H1717.09V158.873H1602.23ZM1884.49 312.085V197.223C1884.49 186.747 1886.48 176.894 1890.47 167.666C1894.59 158.312 1900.08 150.206 1906.94 143.346C1913.92 136.362 1922.09 130.812 1931.44 126.697C1940.8 122.581 1950.71 120.523 1961.19 120.523H2076.05C2086.28 120.523 2095.94 122.581 2105.04 126.697C2114.27 130.812 2122.38 136.362 2129.36 143.346C2136.47 150.206 2142.15 158.312 2146.39 167.666C2150.63 176.894 2152.75 186.747 2152.75 197.223V312.085C2152.75 322.561 2150.69 332.476 2146.57 341.829C2142.46 351.183 2136.91 359.289 2129.93 366.149C2123.07 373.008 2114.96 378.495 2105.61 382.611C2096.38 386.727 2086.52 388.784 2076.05 388.784H1961.19C1950.46 388.784 1940.42 386.851 1931.07 382.985C1921.71 378.994 1913.55 373.569 1906.56 366.71C1899.7 359.726 1894.28 351.557 1890.29 342.204C1886.42 332.85 1884.49 322.81 1884.49 312.085ZM1922.84 312.085C1922.84 322.81 1926.52 331.915 1933.87 339.397C1941.36 346.756 1950.46 350.435 1961.19 350.435H2076.05C2086.77 350.435 2095.82 346.756 2103.17 339.397C2110.66 331.915 2114.4 322.81 2114.4 312.085V197.223C2114.4 186.497 2110.66 177.456 2103.17 170.098C2095.82 162.615 2086.77 158.873 2076.05 158.873H1961.19C1950.46 158.873 1941.36 162.615 1933.87 170.098C1926.52 177.456 1922.84 186.497 1922.84 197.223V312.085Z" fill="#ffffff"/>
<circle cx="384.672" cy="308.254" r="288.633" fill="#2EB2FF" fill-opacity="0.5"/>
<circle cx="563.842" cy="179.686" r="178.653" fill="#FE7C40" fill-opacity="0.5"/>
<circle cx="299.993" cy="228.738" r="228.738" fill="#004AAD" fill-opacity="0.5"/>
<circle cx="522.535" cy="413.071" r="167.294" fill="#FF5757" fill-opacity="0.5"/>
<ellipse cx="405.326" cy="358.339" rx="37.6927" ry="37.1764" fill="white"/>
<ellipse cx="344.398" cy="297.411" rx="37.6927" ry="37.1764" fill="white"/>
<ellipse cx="465.221" cy="297.411" rx="37.6927" ry="37.1764" fill="white"/>
<ellipse cx="404.292" cy="236.483" rx="37.6927" ry="37.1764" fill="white"/>
<ellipse cx="300.913" cy="244.602" rx="22.4194" ry="33.0216" transform="rotate(-135 300.913 244.602)" fill="white"/>
<ellipse cx="493.156" cy="424.019" rx="12.0245" ry="21.1105" transform="rotate(-127 493.156 424.019)" fill="white"/>
<ellipse cx="530.35" cy="386.336" rx="11.8596" ry="21.1272" transform="rotate(-140.78 530.35 386.336)" fill="white"/>
<ellipse cx="12.0245" cy="21.1105" rx="12.0245" ry="21.1105" transform="matrix(-0.601815 0.798636 0.798636 0.601815 308.288 401.711)" fill="white"/>
<ellipse cx="15.4901" cy="27.3659" rx="15.4901" ry="27.3659" transform="matrix(0 -1 -1 0 432.691 459.541)" fill="white"/>
<ellipse cx="15.4901" cy="27.3659" rx="15.4901" ry="27.3659" transform="matrix(1 0 0 -1 536.992 322.195)" fill="white"/>
<ellipse cx="15.4901" cy="27.3659" rx="15.4901" ry="27.3659" transform="matrix(1 0 0 -1 242.68 322.195)" fill="white"/>
<ellipse cx="11.8596" cy="21.1272" rx="11.8596" ry="21.1272" transform="matrix(-0.774676 0.632359 0.632359 0.774676 275.511 362.469)" fill="white"/>
<ellipse cx="12.0245" cy="21.1105" rx="12.0245" ry="21.1105" transform="matrix(-0.601815 0.798636 0.798636 0.601815 483.533 150.56)" fill="white"/>
<ellipse cx="11.8596" cy="21.1272" rx="11.8596" ry="21.1272" transform="matrix(-0.774724 0.6323 0.6323 0.774724 526.18 186.685)" fill="white"/>
<ellipse cx="317.912" cy="172.868" rx="12.0245" ry="21.1105" transform="rotate(-127 317.912 172.868)" fill="white"/>
<ellipse cx="405.325" cy="152.836" rx="15.4901" ry="27.3659" transform="rotate(90 405.325 152.836)" fill="white"/>
<ellipse cx="279.683" cy="210.551" rx="11.8596" ry="21.1272" transform="rotate(-140.776 279.683 210.551)" fill="white"/>
<ellipse cx="351.874" cy="193.588" rx="22.4194" ry="33.0216" transform="rotate(-135 351.874 193.588)" fill="white"/>
<ellipse cx="22.4194" cy="33.0216" rx="22.4194" ry="33.0216" transform="matrix(-0.707107 0.707107 0.707107 0.707107 501.936 206.948)" fill="white"/>
<ellipse cx="22.4194" cy="33.0216" rx="22.4194" ry="33.0216" transform="matrix(-0.707107 0.707107 0.707107 0.707107 450.973 155.934)" fill="white"/>
<ellipse cx="22.4194" cy="33.0216" rx="22.4194" ry="33.0216" transform="matrix(-0.707107 0.707107 0.707107 0.707107 293.416 312.385)" fill="white"/>
<ellipse cx="22.4194" cy="33.0216" rx="22.4194" ry="33.0216" transform="matrix(-0.707107 0.707107 0.707107 0.707107 344.377 363.399)" fill="white"/>
<ellipse cx="511.497" cy="351.071" rx="22.4194" ry="33.0216" transform="rotate(-135 511.497 351.071)" fill="white"/>
<ellipse cx="460.534" cy="402.085" rx="22.4194" ry="33.0216" transform="rotate(-135 460.534 402.085)" fill="white"/>
<circle cx="22.2025" cy="305.156" r="22.2025" fill="#0054F6" fill-opacity="0.5"/>
<circle cx="104.3" cy="548.351" r="25.8169" fill="#FFBD4D" fill-opacity="0.5"/>
<circle cx="839.566" cy="274.692" r="53.6992" fill="#4044FD" fill-opacity="0.5"/>
<circle cx="748.174" cy="360.92" r="24.2679" fill="#FF5757" fill-opacity="0.5"/>
<path d="M984.92 522.28L2140.58 522.28" stroke-width="24.88" stroke-linecap="round" stroke="#ffffff"/>
</svg>
